<?xml version="1.0" encoding="UTF-8"?>
<svg width="154px" height="127px" viewBox="0 0 154 127" version="1.1" xmlns="http://www.w3.org/2000/svg" xmlns:xlink="http://www.w3.org/1999/xlink">
    <!-- Generator: Sketch 43.2 (39069) - http://www.bohemiancoding.com/sketch -->
    <title>full-logo</title>
    <desc>Created with Sketch.</desc>
    <defs></defs>
    <g id="Web" stroke="none" stroke-width="1" fill="none" fill-rule="evenodd">
        <g id="New-Copy" transform="translate(-251.000000, -62.000000)">
            <g id="header" transform="translate(167.000000, 61.000000)">
                <g id="full-logo" transform="translate(84.000000, 1.000000)">
                    <path d="M2.264,22.392 L2.264,1.208 C2.264,1.03733248 2.32266608,0.89333392 2.44,0.776 C2.55733392,0.65866608 2.70133248,0.6 2.872,0.6 L15.48,0.6 C15.6506675,0.6 15.7946661,0.65866608 15.912,0.776 C16.0293339,0.89333392 16.088,1.03733248 16.088,1.208 L16.088,2.136 C16.088,2.30666752 16.0293339,2.45066608 15.912,2.568 C15.7946661,2.68533392 15.6506675,2.744 15.48,2.744 L4.728,2.744 L4.728,11.512 L13.912,11.512 C14.0826675,11.512 14.2266661,11.5706661 14.344,11.688 C14.4613339,11.8053339 14.52,11.9493325 14.52,12.12 L14.52,13.048 C14.52,13.1973341 14.4613339,13.3359994 14.344,13.464 C14.2266661,13.5920006 14.0826675,13.656 13.912,13.656 L4.728,13.656 L4.728,22.392 C4.728,22.5413341 4.66933392,22.6799994 4.552,22.808 C4.43466608,22.9360006 4.29066752,23 4.12,23 L2.872,23 C2.70133248,23 2.55733392,22.9413339 2.44,22.824 C2.32266608,22.7066661 2.264,22.5626675 2.264,22.392 Z M20.733333,23 C20.4986652,23 20.3226669,22.9146675 20.205333,22.744 C20.0879991,22.5733325 20.0826658,22.3813344 20.189333,22.168 L29.917333,0.632 C30.0453336,0.39733216 30.2266652,0.28 30.461333,0.28 L30.781333,0.28 C31.0160008,0.28 31.1973324,0.39733216 31.325333,0.632 L40.989333,22.168 C41.0960002,22.3813344 41.0906669,22.5733325 40.973333,22.744 C40.8559991,22.9146675 40.6800008,23 40.445333,23 L39.165333,23 C38.8879983,23 38.7066668,22.8826678 38.621333,22.648 L36.253333,17.368 L24.893333,17.368 L22.557333,22.648 C22.4719992,22.8826678 22.2906677,23 22.013333,23 L20.733333,23 Z M25.789333,15.384 L35.389333,15.384 L30.717333,4.888 L30.461333,4.888 L25.789333,15.384 Z M46.722666,20.728 C46.3386641,20.4079984 46.2746647,20.0453354 46.530666,19.64 C46.5946663,19.5759997 46.6799988,19.4746674 46.786666,19.336 C46.8933332,19.1973326 46.9679991,19.0960003 47.010666,19.032 C47.3946679,18.5199974 47.7679975,18.4239984 48.130666,18.744 C50.0293422,20.3653414 51.8319908,21.176 53.538666,21.176 C54.797339,21.176 55.826662,20.8346701 56.626666,20.152 C57.42667,19.4693299 57.826666,18.6373382 57.826666,17.656 C57.826666,16.6106614 57.3840038,15.7093371 56.498666,14.952 C55.6133282,14.1946629 54.1893425,13.4106707 52.226666,12.6 C50.2639895,11.7466624 48.8346705,10.8560046 47.938666,9.928 C47.0426615,8.99999536 46.594666,7.6826752 46.594666,5.976 C46.594666,5.37866368 46.7173314,4.77066976 46.962666,4.152 C47.2080006,3.53333024 47.5813302,2.92533632 48.082666,2.328 C48.5840018,1.73066368 49.2986614,1.24000192 50.226666,0.856 C51.1546706,0.47199808 52.2159934,0.28 53.410666,0.28 C54.3493374,0.28 55.2719948,0.41866528 56.178666,0.696 C57.0853372,0.97333472 57.7626638,1.23999872 58.210666,1.496 L58.882666,1.912 C59.0320001,1.97600032 59.1386657,2.09333248 59.202666,2.264 C59.2666663,2.43466752 59.2240001,2.6799984 59.074666,3 C59.0319991,3.06400032 58.9679998,3.16533264 58.882666,3.304 C58.7973322,3.44266736 58.7333329,3.54399968 58.690666,3.608 C58.3919978,4.05600224 58.0186682,4.15200128 57.570666,3.896 C55.8639908,2.91466176 54.4666714,2.424 53.378666,2.424 C51.8639918,2.424 50.7493362,2.7973296 50.034666,3.544 C49.3199958,4.2906704 48.962666,5.0906624 48.962666,5.944 C48.962666,6.96800512 49.3199958,7.8266632 50.034666,8.52 C50.7493362,9.2133368 51.8319921,9.85866368 53.282666,10.456 C55.7360116,11.4586717 57.533327,12.4613283 58.674666,13.464 C59.816005,14.4666717 60.386666,15.8319914 60.386666,17.56 C60.386666,19.2026749 59.7093394,20.5733278 58.354666,21.672 C56.9999926,22.7706722 55.3733422,23.32 53.474666,23.32 C52.3439937,23.32 51.2293382,23.1120021 50.130666,22.696 C49.0319938,22.2799979 48.2640015,21.9173349 47.826666,21.608 C47.3893305,21.2986651 47.0213342,21.0053347 46.722666,20.728 Z M71.687999,22.392 L71.687999,2.744 L66.119999,2.744 C65.9493315,2.744 65.8053329,2.68533392 65.687999,2.568 C65.5706651,2.45066608 65.511999,2.30666752 65.511999,2.136 L65.511999,1.208 C65.511999,1.03733248 65.5706651,0.89333392 65.687999,0.776 C65.8053329,0.65866608 65.9493315,0.6 66.119999,0.6 L79.687999,0.6 C79.8586665,0.6 80.0026651,0.65866608 80.119999,0.776 C80.2373329,0.89333392 80.295999,1.03733248 80.295999,1.208 L80.295999,2.136 C80.295999,2.30666752 80.2373329,2.45066608 80.119999,2.568 C80.0026651,2.68533392 79.8586665,2.744 79.687999,2.744 L74.119999,2.744 L74.119999,22.392 C74.119999,22.5413341 74.0613329,22.6799994 73.943999,22.808 C73.8266651,22.9360006 73.6826665,23 73.511999,23 L72.295999,23 C72.1253315,23 71.9813329,22.9360006 71.863999,22.808 C71.7466651,22.6799994 71.687999,22.5413341 71.687999,22.392 Z M2.264,57.392 L2.264,36.208 C2.264,36.0373325 2.32266608,35.8933339 2.44,35.776 C2.55733392,35.6586661 2.70133248,35.6 2.872,35.6 L11.16,35.6 C13.0800096,35.6 14.7226598,36.2613267 16.088,37.584 C17.4533402,38.9066733 18.136,40.5173238 18.136,42.416 C18.136,43.8666739 17.7040043,45.1733275 16.84,46.336 C15.9759957,47.4986725 14.8293405,48.3679971 13.4,48.944 L17.784,57.072 C17.9120006,57.2853344 17.9173339,57.4933323 17.8,57.696 C17.6826661,57.8986677 17.4960013,58 17.24,58 L15.608,58 C15.3733322,58 15.2026672,57.904001 15.096,57.712 L10.84,49.232 L4.728,49.232 L4.728,57.392 C4.728,57.5413341 4.66933392,57.6799994 4.552,57.808 C4.43466608,57.9360006 4.29066752,58 4.12,58 L2.872,58 C2.70133248,58 2.55733392,57.9413339 2.44,57.824 C2.32266608,57.7066661 2.264,57.5626675 2.264,57.392 Z M4.792,47.12 L11,47.12 C12.2373395,47.12 13.3146621,46.6666712 14.232,45.76 C15.1493379,44.8533288 15.608,43.7493398 15.608,42.448 C15.608,41.2319939 15.1493379,40.1760045 14.232,39.28 C13.3146621,38.3839955 12.2373395,37.936 11,37.936 L4.792,37.936 L4.792,47.12 Z M25.277333,46.832 C25.277333,43.631984 26.3919885,40.9066779 28.621333,38.656 C30.8506775,36.4053221 33.565317,35.28 36.765333,35.28 C39.965349,35.28 42.6853218,36.4053221 44.925333,38.656 C47.1653442,40.9066779 48.285333,43.631984 48.285333,46.832 C48.285333,50.032016 47.1653442,52.7466555 44.925333,54.976 C42.6853218,57.2053445 39.965349,58.32 36.765333,58.32 C33.565317,58.32 30.8506775,57.2053445 28.621333,54.976 C26.3919885,52.7466555 25.277333,50.032016 25.277333,46.832 Z M27.517333,46.832 C27.517333,49.3706794 28.4239906,51.5466576 30.237333,53.36 C32.0506754,55.1733424 34.2266536,56.08 36.765333,56.08 C39.3040124,56.08 41.4853239,55.1733424 43.309333,53.36 C45.1333421,51.5466576 46.045333,49.3706794 46.045333,46.832 C46.045333,44.2933206 45.1333421,42.1066758 43.309333,40.272 C41.4853239,38.4373242 39.3040124,37.52 36.765333,37.52 C34.2266536,37.52 32.0506754,38.4373242 30.237333,40.272 C28.4239906,42.1066758 27.517333,44.2933206 27.517333,46.832 Z M60.834666,57.392 L60.834666,47.216 L53.122666,36.528 C52.9946654,36.3146656 52.9839988,36.1066677 53.090666,35.904 C53.1973332,35.7013323 53.3786647,35.6 53.634666,35.6 L55.138666,35.6 C55.330667,35.6 55.5013319,35.695999 55.650666,35.888 L62.114666,44.816 L68.578666,35.888 C68.7280001,35.695999 68.898665,35.6 69.090666,35.6 L70.594666,35.6 C70.8506673,35.6 71.0319988,35.7013323 71.138666,35.904 C71.2453332,36.1066677 71.2346666,36.3146656 71.106666,36.528 L63.298666,47.184 L63.298666,57.392 C63.298666,57.5413341 63.2346666,57.6799994 63.106666,57.808 C62.9786654,57.9360006 62.8400001,58 62.690666,58 L61.442666,58 C61.2719985,58 61.1279999,57.9413339 61.010666,57.824 C60.8933321,57.7066661 60.834666,57.5626675 60.834666,57.392 Z M73.735999,58 C73.5013312,58 73.3253329,57.9146675 73.207999,57.744 C73.0906651,57.5733325 73.0853318,57.3813344 73.191999,57.168 L82.919999,35.632 C83.0479996,35.3973322 83.2293312,35.28 83.463999,35.28 L83.783999,35.28 C84.0186668,35.28 84.1999984,35.3973322 84.327999,35.632 L93.991999,57.168 C94.0986662,57.3813344 94.0933329,57.5733325 93.975999,57.744 C93.8586651,57.9146675 93.6826668,58 93.447999,58 L92.167999,58 C91.8906643,58 91.7093328,57.8826678 91.623999,57.648 L89.255999,52.368 L77.895999,52.368 L75.559999,57.648 C75.4746652,57.8826678 75.2933337,58 75.015999,58 L73.735999,58 Z M78.791999,50.384 L88.391999,50.384 L83.719999,39.888 L83.463999,39.888 L78.791999,50.384 Z M100.973332,57.392 L100.973332,36.208 C100.973332,36.0373325 101.031998,35.8933339 101.149332,35.776 C101.266666,35.6586661 101.410664,35.6 101.581332,35.6 L102.829332,35.6 C103,35.6 103.143998,35.6639994 103.261332,35.792 C103.378666,35.9200006 103.437332,36.0586659 103.437332,36.208 L103.437332,55.856 L112.653332,55.856 C112.824,55.856 112.967998,55.9146661 113.085332,56.032 C113.202666,56.1493339 113.261332,56.2933325 113.261332,56.464 L113.261332,57.392 C113.261332,57.5626675 113.202666,57.7066661 113.085332,57.824 C112.967998,57.9413339 112.824,58 112.653332,58 L101.581332,58 C101.410664,58 101.266666,57.9413339 101.149332,57.824 C101.031998,57.7066661 100.973332,57.5626675 100.973332,57.392 Z M121.938665,57.392 L121.938665,37.744 L116.370665,37.744 C116.199997,37.744 116.055999,37.6853339 115.938665,37.568 C115.821331,37.4506661 115.762665,37.3066675 115.762665,37.136 L115.762665,36.208 C115.762665,36.0373325 115.821331,35.8933339 115.938665,35.776 C116.055999,35.6586661 116.199997,35.6 116.370665,35.6 L129.938665,35.6 C130.109333,35.6 130.253331,35.6586661 130.370665,35.776 C130.487999,35.8933339 130.546665,36.0373325 130.546665,36.208 L130.546665,37.136 C130.546665,37.3066675 130.487999,37.4506661 130.370665,37.568 C130.253331,37.6853339 130.109333,37.744 129.938665,37.744 L124.370665,37.744 L124.370665,57.392 C124.370665,57.5413341 124.311999,57.6799994 124.194665,57.808 C124.077331,57.9360006 123.933333,58 123.762665,58 L122.546665,58 C122.375997,58 122.231999,57.9360006 122.114665,57.808 C121.997331,57.6799994 121.938665,57.5413341 121.938665,57.392 Z M143.159998,57.392 L143.159998,47.216 L135.447998,36.528 C135.319997,36.3146656 135.309331,36.1066677 135.415998,35.904 C135.522665,35.7013323 135.703997,35.6 135.959998,35.6 L137.463998,35.6 C137.655999,35.6 137.826664,35.695999 137.975998,35.888 L144.439998,44.816 L150.903998,35.888 C151.053332,35.695999 151.223997,35.6 151.415998,35.6 L152.919998,35.6 C153.175999,35.6 153.357331,35.7013323 153.463998,35.904 C153.570665,36.1066677 153.559999,36.3146656 153.431998,36.528 L145.623998,47.184 L145.623998,57.392 C145.623998,57.5413341 145.559999,57.6799994 145.431998,57.808 C145.303997,57.9360006 145.165332,58 145.015998,58 L143.767998,58 C143.59733,58 143.453332,57.9413339 143.335998,57.824 C143.218664,57.7066661 143.159998,57.5626675 143.159998,57.392 Z M0.632,81.832 C0.632,78.631984 1.75732208,75.9066779 4.008,73.656 C6.25867792,71.4053221 8.983984,70.28 12.184,70.28 C15.0213475,70.28 17.602655,71.2719901 19.928,73.256 C20.2266682,73.5760016 20.2373347,73.8746653 19.96,74.152 L19.096,75.016 C18.8613322,75.3146682 18.5840016,75.3040016 18.264,74.984 C16.4079907,73.383992 14.3706778,72.584 12.152,72.584 C9.65598752,72.584 7.54400864,73.4906576 5.816,75.304 C4.08799136,77.1173424 3.224,79.2826541 3.224,81.8 C3.224,84.2960125 4.08799136,86.4506576 5.816,88.264 C7.54400864,90.0773424 9.65598752,90.984 12.152,90.984 C13.026671,90.984 13.8533294,90.8613346 14.632,90.616 C15.4106706,90.3706654 16.0346643,90.1040014 16.504,89.816 C16.9733357,89.5279986 17.5599965,89.117336 18.264,88.584 C18.5413347,88.3706656 18.7973322,88.3386659 19.032,88.488 L19.992,89.352 C20.1200006,89.4586672 20.1786667,89.5973325 20.168,89.768 C20.1573333,89.9386675 20.0880006,90.0879994 19.96,90.216 C17.826656,92.2853437 15.2346819,93.32 12.184,93.32 C8.983984,93.32 6.25867792,92.2053445 4.008,89.976 C1.75732208,87.7466555 0.632,85.032016 0.632,81.832 Z M25.853333,93 C25.6186652,93 25.4426669,92.9146675 25.325333,92.744 C25.2079991,92.5733325 25.2026658,92.3813344 25.309333,92.168 L35.037333,70.632 C35.1653336,70.3973322 35.3466652,70.28 35.581333,70.28 L35.901333,70.28 C36.1360008,70.28 36.3173324,70.3973322 36.445333,70.632 L46.109333,92.168 C46.2160002,92.3813344 46.2106669,92.5733325 46.093333,92.744 C45.9759991,92.9146675 45.8000008,93 45.565333,93 L44.285333,93 C44.0079983,93 43.8266668,92.8826678 43.741333,92.648 L41.373333,87.368 L30.013333,87.368 L27.677333,92.648 C27.5919992,92.8826678 27.4106677,93 27.133333,93 L25.853333,93 Z M30.909333,85.384 L40.509333,85.384 L35.837333,74.888 L35.581333,74.888 L30.909333,85.384 Z M51.842666,90.728 C51.4586641,90.4079984 51.3946647,90.0453354 51.650666,89.64 C51.7146663,89.5759997 51.7999988,89.4746674 51.906666,89.336 C52.0133332,89.1973326 52.0879991,89.0960003 52.130666,89.032 C52.5146679,88.5199974 52.8879975,88.4239984 53.250666,88.744 C55.1493422,90.3653414 56.9519908,91.176 58.658666,91.176 C59.917339,91.176 60.946662,90.8346701 61.746666,90.152 C62.54667,89.4693299 62.946666,88.6373382 62.946666,87.656 C62.946666,86.6106614 62.5040038,85.7093371 61.618666,84.952 C60.7333282,84.1946629 59.3093425,83.4106707 57.346666,82.6 C55.3839895,81.7466624 53.9546705,80.8560046 53.058666,79.928 C52.1626615,78.9999954 51.714666,77.6826752 51.714666,75.976 C51.714666,75.3786637 51.8373314,74.7706698 52.082666,74.152 C52.3280006,73.5333302 52.7013302,72.9253363 53.202666,72.328 C53.7040018,71.7306637 54.4186614,71.2400019 55.346666,70.856 C56.2746706,70.4719981 57.3359934,70.28 58.530666,70.28 C59.4693374,70.28 60.3919948,70.4186653 61.298666,70.696 C62.2053372,70.9733347 62.8826638,71.2399987 63.330666,71.496 L64.002666,71.912 C64.1520001,71.9760003 64.2586657,72.0933325 64.322666,72.264 C64.3866663,72.4346675 64.3440001,72.6799984 64.194666,73 C64.1519991,73.0640003 64.0879998,73.1653326 64.002666,73.304 C63.9173322,73.4426674 63.8533329,73.5439997 63.810666,73.608 C63.5119978,74.0560022 63.1386682,74.1520013 62.690666,73.896 C60.9839908,72.9146618 59.5866714,72.424 58.498666,72.424 C56.9839918,72.424 55.8693362,72.7973296 55.154666,73.544 C54.4399958,74.2906704 54.082666,75.0906624 54.082666,75.944 C54.082666,76.9680051 54.4399958,77.8266632 55.154666,78.52 C55.8693362,79.2133368 56.9519921,79.8586637 58.402666,80.456 C60.8560116,81.4586717 62.653327,82.4613283 63.794666,83.464 C64.936005,84.4666717 65.506666,85.8319914 65.506666,87.56 C65.506666,89.2026749 64.8293394,90.5733278 63.474666,91.672 C62.1199926,92.7706722 60.4933422,93.32 58.594666,93.32 C57.4639937,93.32 56.3493382,93.1120021 55.250666,92.696 C54.1519938,92.2799979 53.3840015,91.9173349 52.946666,91.608 C52.5093305,91.2986651 52.1413342,91.0053347 51.842666,90.728 Z M73.639999,92.392 L73.639999,71.208 C73.639999,71.0586659 73.7039984,70.9200006 73.831999,70.792 C73.9599996,70.6639994 74.0986649,70.6 74.247999,70.6 L75.495999,70.6 C75.6666665,70.6 75.8106651,70.6586661 75.927999,70.776 C76.0453329,70.8933339 76.103999,71.0373325 76.103999,71.208 L76.103999,80.552 L89.095999,80.552 L89.095999,71.208 C89.095999,71.0373325 89.1546651,70.8933339 89.271999,70.776 C89.3893329,70.6586661 89.5333315,70.6 89.703999,70.6 L90.951999,70.6 C91.1013331,70.6 91.2399984,70.6639994 91.367999,70.792 C91.4959996,70.9200006 91.559999,71.0586659 91.559999,71.208 L91.559999,92.392 C91.559999,92.5413341 91.4959996,92.6799994 91.367999,92.808 C91.2399984,92.9360006 91.1013331,93 90.951999,93 L89.703999,93 C89.5333315,93 89.3893329,92.9413339 89.271999,92.824 C89.1546651,92.7066661 89.095999,92.5626675 89.095999,92.392 L89.095999,82.696 L76.103999,82.696 L76.103999,92.392 C76.103999,92.5626675 76.0453329,92.7066661 75.927999,92.824 C75.8106651,92.9413339 75.6666665,93 75.495999,93 L74.247999,93 C74.0986649,93 73.9599996,92.9360006 73.831999,92.808 C73.7039984,92.6799994 73.639999,92.5413341 73.639999,92.392 Z" id="FAST-ROYALTY-CASH" fill="#202020"></path>
                    <path d="M10.24,118.6 C10.2680001,118.665334 10.2936666,118.747 10.317,118.845 C10.3403335,118.943 10.352,119.029333 10.352,119.104 L10.352,120.658 C10.352,120.732667 10.3356668,120.814333 10.303,120.903 C10.2703332,120.991667 10.2306669,121.064 10.184,121.12 L9.582,121.89 C9.5353331,121.946 9.51433331,122.016 9.519,122.1 C9.52366669,122.184 9.5493331,122.249333 9.596,122.296 L10.17,122.996 C10.2166669,123.052 10.2586665,123.124333 10.296,123.213 C10.3333335,123.301667 10.352,123.383333 10.352,123.458 L10.352,125.11 C10.352,125.184667 10.3403335,125.268666 10.317,125.362 C10.2936666,125.455334 10.2680001,125.534666 10.24,125.6 L8.952,126.888 C8.88666634,126.925334 8.80500049,126.953333 8.707,126.972 C8.60899951,126.990667 8.52266704,127 8.448,127 L2.386,127 C2.20866578,127 2.12,126.911334 2.12,126.734 L2.12,117.466 C2.12,117.391333 2.14566641,117.328334 2.197,117.277 C2.24833359,117.225666 2.31133296,117.2 2.386,117.2 L8.448,117.2 C8.52266704,117.2 8.60899951,117.211667 8.707,117.235 C8.80500049,117.258333 8.88666634,117.284 8.952,117.312 L10.24,118.6 Z M4.346,121.078 L8.112,121.078 L8.112,119.328 L4.346,119.328 L4.346,121.078 Z M4.346,124.858 L8.112,124.858 L8.112,122.954 L4.346,122.954 L4.346,124.858 Z M22.310334,117.2 C22.385001,117.2 22.4363339,117.221 22.464334,117.263 C22.4923341,117.305 22.4876675,117.358666 22.450334,117.424 L19.300334,123.136 C19.2630005,123.201334 19.2326675,123.280666 19.209334,123.374 C19.1860006,123.467334 19.174334,123.551333 19.174334,123.626 L19.174334,126.734 C19.174334,126.808667 19.1510009,126.871666 19.104334,126.923 C19.0576671,126.974334 18.997001,127 18.922334,127 L16.976334,127 C16.901667,127 16.8386676,126.974334 16.787334,126.923 C16.7360004,126.871666 16.710334,126.808667 16.710334,126.734 L16.710334,123.626 C16.710334,123.551333 16.6986675,123.467334 16.675334,123.374 C16.6520006,123.280666 16.6216675,123.201334 16.584334,123.136 L13.448334,117.424 C13.4110005,117.358666 13.4063339,117.305 13.434334,117.263 C13.4623341,117.221 13.513667,117.2 13.588334,117.2 L15.688334,117.2 C15.763001,117.2 15.8353337,117.221 15.905334,117.263 C15.9753344,117.305 16.0290005,117.358666 16.066334,117.424 L17.942334,121.106 L19.818334,117.424 C19.8556675,117.358666 19.911667,117.305 19.986334,117.263 C20.061001,117.221 20.135667,117.2 20.210334,117.2 L22.310334,117.2 Z M39.997002,118.6 C40.0250021,118.665334 40.0506686,118.744666 40.074002,118.838 C40.0973355,118.931334 40.109002,119.015333 40.109002,119.09 L40.109002,125.11 C40.109002,125.184667 40.0973355,125.268666 40.074002,125.362 C40.0506686,125.455334 40.0250021,125.534666 39.997002,125.6 L38.709002,126.888 C38.6436683,126.925334 38.5620025,126.953333 38.464002,126.972 C38.3660015,126.990667 38.279669,127 38.205002,127 L33.767002,127 C33.692335,127 33.6083358,126.990667 33.515002,126.972 C33.4216682,126.953333 33.3423357,126.925334 33.277002,126.888 L31.989002,125.6 C31.9516685,125.534666 31.9236688,125.455334 31.905002,125.362 C31.8863352,125.268666 31.877002,125.184667 31.877002,125.11 L31.877002,119.09 C31.877002,119.015333 31.8863352,118.931334 31.905002,118.838 C31.9236688,118.744666 31.9516685,118.665334 31.989002,118.6 L33.277002,117.312 C33.3423357,117.284 33.4216682,117.258333 33.515002,117.235 C33.6083358,117.211667 33.692335,117.2 33.767002,117.2 L38.205002,117.2 C38.279669,117.2 38.3660015,117.211667 38.464002,117.235 C38.5620025,117.258333 38.6436683,117.284 38.709002,117.312 L39.997002,118.6 Z M37.631002,119.58 L34.341002,119.58 L34.341002,124.634 L37.631002,124.634 L37.631002,119.58 Z M49.407336,121.33 C49.3793359,121.358 49.3746692,121.390666 49.393336,121.428 L52.669336,126.776 C52.7066695,126.841334 52.7113361,126.895 52.683336,126.937 C52.6553359,126.979 52.604003,127 52.529336,127 L50.205336,127 C50.130669,127 50.056003,126.979 49.981336,126.937 C49.906669,126.895 49.8506695,126.841334 49.813336,126.776 L47.699336,122.954 C47.6713359,122.907333 47.6480028,122.902666 47.629336,122.94 L46.467336,124.214 C46.4206691,124.260667 46.3810028,124.328333 46.348336,124.417 C46.3156692,124.505667 46.299336,124.587333 46.299336,124.662 L46.299336,126.734 C46.299336,126.911334 46.2106702,127 46.033336,127 L44.101336,127 C43.9240018,127 43.835336,126.911334 43.835336,126.734 L43.835336,117.466 C43.835336,117.288666 43.9240018,117.2 44.101336,117.2 L46.033336,117.2 C46.2106702,117.2 46.299336,117.288666 46.299336,117.466 L46.299336,121.624 L49.911336,117.396 C49.9580029,117.34 50.0233356,117.293334 50.107336,117.256 C50.1913364,117.218666 50.270669,117.2 50.345336,117.2 L52.669336,117.2 C52.744003,117.2 52.7883359,117.218666 52.802336,117.256 C52.8163361,117.293334 52.8000029,117.34 52.753336,117.396 L49.407336,121.33 Z M63.54967,118.6 C63.5776701,118.665334 63.6033366,118.744666 63.62667,118.838 C63.6500035,118.931334 63.66167,119.015333 63.66167,119.09 L63.66167,125.11 C63.66167,125.184667 63.6500035,125.268666 63.62667,125.362 C63.6033366,125.455334 63.5776701,125.534666 63.54967,125.6 L62.26167,126.888 C62.1963363,126.925334 62.1146705,126.953333 62.01667,126.972 C61.9186695,126.990667 61.832337,127 61.75767,127 L57.31967,127 C57.245003,127 57.1610038,126.990667 57.06767,126.972 C56.9743362,126.953333 56.8950037,126.925334 56.82967,126.888 L55.54167,125.6 C55.5043365,125.534666 55.4763368,125.455334 55.45767,125.362 C55.4390032,125.268666 55.42967,125.184667 55.42967,125.11 L55.42967,119.09 C55.42967,119.015333 55.4390032,118.931334 55.45767,118.838 C55.4763368,118.744666 55.5043365,118.665334 55.54167,118.6 L56.82967,117.312 C56.8950037,117.284 56.9743362,117.258333 57.06767,117.235 C57.1610038,117.211667 57.245003,117.2 57.31967,117.2 L61.75767,117.2 C61.832337,117.2 61.9186695,117.211667 62.01667,117.235 C62.1146705,117.258333 62.1963363,117.284 62.26167,117.312 L63.54967,118.6 Z M61.18367,119.58 L57.89367,119.58 L57.89367,124.634 L61.18367,124.634 L61.18367,119.58 Z M70.076004,119.58 C70.001337,119.58 69.9383376,119.603333 69.887004,119.65 C69.8356704,119.696667 69.810004,119.757333 69.810004,119.832 L69.810004,124.368 C69.810004,124.442667 69.8356704,124.505666 69.887004,124.557 C69.9383376,124.608334 70.001337,124.634 70.076004,124.634 L74.570004,124.634 C74.644671,124.634 74.7076704,124.657333 74.759004,124.704 C74.8103376,124.750667 74.836004,124.811333 74.836004,124.886 L74.836004,126.734 C74.836004,126.808667 74.8103376,126.871666 74.759004,126.923 C74.7076704,126.974334 74.644671,127 74.570004,127 L69.236004,127 C69.161337,127 69.0773378,126.990667 68.984004,126.972 C68.8906702,126.953333 68.8113377,126.925334 68.746004,126.888 L67.458004,125.6 C67.4206705,125.534666 67.3926708,125.455334 67.374004,125.362 C67.3553372,125.268666 67.346004,125.184667 67.346004,125.11 L67.346004,119.09 C67.346004,119.015333 67.3553372,118.931334 67.374004,118.838 C67.3926708,118.744666 67.4206705,118.665334 67.458004,118.6 L68.746004,117.312 C68.8113377,117.284 68.8790037,117.258333 68.949004,117.235 C69.0190044,117.211667 69.0726705,117.2 69.110004,117.2 L74.570004,117.2 C74.644671,117.2 74.7076704,117.225666 74.759004,117.277 C74.8103376,117.328334 74.836004,117.391333 74.836004,117.466 L74.836004,119.314 C74.836004,119.388667 74.8103376,119.451666 74.759004,119.503 C74.7076704,119.554334 74.644671,119.58 74.570004,119.58 L70.076004,119.58 Z M86.682338,118.6 C86.7103381,118.665334 86.7360046,118.744666 86.759338,118.838 C86.7826715,118.931334 86.794338,119.015333 86.794338,119.09 L86.794338,125.11 C86.794338,125.184667 86.7826715,125.268666 86.759338,125.362 C86.7360046,125.455334 86.7103381,125.534666 86.682338,125.6 L85.394338,126.888 C85.3290043,126.925334 85.2473385,126.953333 85.149338,126.972 C85.0513375,126.990667 84.965005,127 84.890338,127 L80.452338,127 C80.377671,127 80.2936718,126.990667 80.200338,126.972 C80.1070042,126.953333 80.0276717,126.925334 79.962338,126.888 L78.674338,125.6 C78.6370045,125.534666 78.6090048,125.455334 78.590338,125.362 C78.5716712,125.268666 78.562338,125.184667 78.562338,125.11 L78.562338,119.09 C78.562338,119.015333 78.5716712,118.931334 78.590338,118.838 C78.6090048,118.744666 78.6370045,118.665334 78.674338,118.6 L79.962338,117.312 C80.0276717,117.284 80.1070042,117.258333 80.200338,117.235 C80.2936718,117.211667 80.377671,117.2 80.452338,117.2 L84.890338,117.2 C84.965005,117.2 85.0513375,117.211667 85.149338,117.235 C85.2473385,117.258333 85.3290043,117.284 85.394338,117.312 L86.682338,118.6 Z M84.316338,119.58 L81.026338,119.58 L81.026338,124.634 L84.316338,124.634 L84.316338,119.58 Z" id="by-OKOCO" fill="#EB2121"></path>
                </g>
            </g>
        </g>
    </g>
</svg>